<svg xmlns="http://www.w3.org/2000/svg" width="40" height="40" viewBox="0 0 40 40" fill="none">
<path d="M0 18.1333C0 11.7861 0 8.61244 1.23526 6.18811C2.32182 4.0556 4.0556 2.32182 6.18811 1.23526C8.61244 0 11.7861 0 18.1333 0H21.8667C28.2139 0 31.3876 0 33.8119 1.23526C35.9444 2.32182 37.6782 4.0556 38.7647 6.18811C40 8.61244 40 11.7861 40 18.1333V21.8667C40 28.2139 40 31.3876 38.7647 33.8119C37.6782 35.9444 35.9444 37.6782 33.8119 38.7647C31.3876 40 28.2139 40 21.8667 40H18.1333C11.7861 40 8.61244 40 6.18811 38.7647C4.0556 37.6782 2.32182 35.9444 1.23526 33.8119C0 31.3876 0 28.2139 0 21.8667V18.1333Z" fill="url(#paint0_linear_102_301)"/>
<path d="M6.66666 12.6667H8.66666C18.976 12.6667 27.3333 21.024 27.3333 31.3333V33.3333H31.3333C32.4379 33.3333 33.3333 32.4379 33.3333 31.3333C33.3333 17.7103 22.2897 6.66666 8.66666 6.66666C7.56209 6.66666 6.66666 7.56209 6.66666 8.66666V12.6667Z" fill="url(#paint1_radial_102_301)"/>
<path d="M28 31.3333H33.3333C33.3333 32.4379 32.4379 33.3333 31.3333 33.3333H28V31.3333Z" fill="url(#paint2_linear_102_301)"/>
<path d="M8.66666 6.66666L8.66666 12H6.66666L6.66666 8.66666C6.66666 7.56209 7.56209 6.66666 8.66666 6.66666Z" fill="url(#paint3_linear_102_301)"/>
<path d="M6.66666 12H8.66666C19.3442 12 28 20.6558 28 31.3333V33.3333H22V31.3333C22 23.9695 16.0305 18 8.66666 18H6.66666V12Z" fill="url(#paint4_radial_102_301)"/>
<path d="M22.6667 31.3333H28V33.3333H22.6667V31.3333Z" fill="url(#paint5_linear_102_301)"/>
<path d="M6.66666 17.3333L6.66666 12L8.66666 12L8.66666 17.3333H6.66666Z" fill="url(#paint6_linear_102_301)"/>
<path d="M6.66666 20.6667C6.66666 21.7712 7.56209 22.6667 8.66666 22.6667C13.4531 22.6667 17.3333 26.5469 17.3333 31.3333C17.3333 32.4379 18.2288 33.3333 19.3333 33.3333H22.6667V31.3333C22.6667 23.6013 16.3986 17.3333 8.66666 17.3333H6.66666V20.6667Z" fill="url(#paint7_radial_102_301)"/>
<path d="M17.3333 31.3333H22.6666V33.3333H19.3333C18.2287 33.3333 17.3333 32.4379 17.3333 31.3333Z" fill="url(#paint8_radial_102_301)"/>
<path d="M8.66666 22.6667C7.56209 22.6667 6.66666 21.7712 6.66666 20.6667L6.66666 17.3333L8.66666 17.3333L8.66666 22.6667Z" fill="url(#paint9_radial_102_301)"/>
<defs>
<linearGradient id="paint0_linear_102_301" x1="20" y1="0" x2="20" y2="40" gradientUnits="userSpaceOnUse">
<stop stop-color="#174299"/>
<stop offset="1" stop-color="#001E59"/>
</linearGradient>
<radialGradient id="paint1_radial_102_301" cx="0" cy="0" r="1" gradientUnits="userSpaceOnUse" gradientTransform="translate(8.66666 31.3333) rotate(-90) scale(24.6667 24.6667)">
<stop offset="0.770277" stop-color="#FF4000"/>
<stop offset="1" stop-color="#8754C9"/>
</radialGradient>
<linearGradient id="paint2_linear_102_301" x1="27.6667" y1="32.3333" x2="33.3333" y2="32.3333" gradientUnits="userSpaceOnUse">
<stop stop-color="#FF4000"/>
<stop offset="1" stop-color="#8754C9"/>
</linearGradient>
<linearGradient id="paint3_linear_102_301" x1="7.66666" y1="6.66666" x2="7.66665" y2="12.3333" gradientUnits="userSpaceOnUse">
<stop stop-color="#8754C9"/>
<stop offset="1" stop-color="#FF4000"/>
</linearGradient>
<radialGradient id="paint4_radial_102_301" cx="0" cy="0" r="1" gradientUnits="userSpaceOnUse" gradientTransform="translate(8.66666 31.3333) rotate(-90) scale(19.3333 19.3333)">
<stop offset="0.723929" stop-color="#FFF700"/>
<stop offset="1" stop-color="#FF9901"/>
</radialGradient>
<linearGradient id="paint5_linear_102_301" x1="22.6667" y1="32.3333" x2="28" y2="32.3333" gradientUnits="userSpaceOnUse">
<stop stop-color="#FFF700"/>
<stop offset="1" stop-color="#FF9901"/>
</linearGradient>
<linearGradient id="paint6_linear_102_301" x1="7.66666" y1="17.3333" x2="7.66666" y2="12" gradientUnits="userSpaceOnUse">
<stop stop-color="#FFF700"/>
<stop offset="1" stop-color="#FF9901"/>
</linearGradient>
<radialGradient id="paint7_radial_102_301" cx="0" cy="0" r="1" gradientUnits="userSpaceOnUse" gradientTransform="translate(8.66666 31.3333) rotate(-90) scale(14 14)">
<stop offset="0.59513" stop-color="#00AAFF"/>
<stop offset="1" stop-color="#01DA40"/>
</radialGradient>
<radialGradient id="paint8_radial_102_301" cx="0" cy="0" r="1" gradientUnits="userSpaceOnUse" gradientTransform="translate(17 32.3333) scale(5.66667 15.1111)">
<stop stop-color="#00AAFF"/>
<stop offset="1" stop-color="#01DA40"/>
</radialGradient>
<radialGradient id="paint9_radial_102_301" cx="0" cy="0" r="1" gradientUnits="userSpaceOnUse" gradientTransform="translate(7.66666 23) rotate(-90) scale(5.66666 107.457)">
<stop stop-color="#00AAFF"/>
<stop offset="1" stop-color="#01DA40"/>
</radialGradient>
</defs>
</svg>